<?xml version="1.0" encoding="utf-8" standalone="no"?>
<!DOCTYPE svg PUBLIC "-//W3C//DTD SVG 1.1//EN"
  "http://www.w3.org/Graphics/SVG/1.1/DTD/svg11.dtd">
<!-- Created with matplotlib (http://matplotlib.org/) -->
<svg height="144pt" version="1.1" viewBox="0 0 864 144" width="864pt" xmlns="http://www.w3.org/2000/svg" xmlns:xlink="http://www.w3.org/1999/xlink">
 <defs>
  <style type="text/css">
*{stroke-linecap:butt;stroke-linejoin:round;}
  </style>
 </defs>
 <g id="figure_1">
  <g id="patch_1">
   <path d="M 0 144 
L 864 144 
L 864 0 
L 0 0 
z
" style="fill:#ffffff;"/>
  </g>
  <g id="axes_1">
   <g id="patch_2">
    <path d="M 108 128.16 
L 777.6 128.16 
L 777.6 17.28 
L 108 17.28 
z
" style="fill:#ffffff;"/>
   </g>
   <g id="matplotlib.axis_1">
    <g id="xtick_1">
     <g id="line2d_1">
      <defs>
       <path d="M 0 0 
L 0 3.5 
" id="m06c5ec5c6a" style="stroke:#000000;stroke-width:0.8;"/>
      </defs>
      <g>
       <use style="stroke:#000000;stroke-width:0.8;" x="125.20086" xlink:href="#m06c5ec5c6a" y="128.16"/>
      </g>
     </g>
     <g id="text_1">
      <!-- 0 -->
      <defs>
       <path d="M 31.78125 66.40625 
Q 24.171875 66.40625 20.328125 58.90625 
Q 16.5 51.421875 16.5 36.375 
Q 16.5 21.390625 20.328125 13.890625 
Q 24.171875 6.390625 31.78125 6.390625 
Q 39.453125 6.390625 43.28125 13.890625 
Q 47.125 21.390625 47.125 36.375 
Q 47.125 51.421875 43.28125 58.90625 
Q 39.453125 66.40625 31.78125 66.40625 
z
M 31.78125 74.21875 
Q 44.046875 74.21875 50.515625 64.515625 
Q 56.984375 54.828125 56.984375 36.375 
Q 56.984375 17.96875 50.515625 8.265625 
Q 44.046875 -1.421875 31.78125 -1.421875 
Q 19.53125 -1.421875 13.0625 8.265625 
Q 6.59375 17.96875 6.59375 36.375 
Q 6.59375 54.828125 13.0625 64.515625 
Q 19.53125 74.21875 31.78125 74.21875 
z
" id="DejaVuSans-30"/>
      </defs>
      <g transform="translate(122.01961 142.758438)scale(0.1 -0.1)">
       <use xlink:href="#DejaVuSans-30"/>
      </g>
     </g>
    </g>
    <g id="xtick_2">
     <g id="line2d_2">
      <g>
       <use style="stroke:#000000;stroke-width:0.8;" x="231.084887" xlink:href="#m06c5ec5c6a" y="128.16"/>
      </g>
     </g>
     <g id="text_2">
      <!-- 1000 -->
      <defs>
       <path d="M 12.40625 8.296875 
L 28.515625 8.296875 
L 28.515625 63.921875 
L 10.984375 60.40625 
L 10.984375 69.390625 
L 28.421875 72.90625 
L 38.28125 72.90625 
L 38.28125 8.296875 
L 54.390625 8.296875 
L 54.390625 0 
L 12.40625 0 
z
" id="DejaVuSans-31"/>
      </defs>
      <g transform="translate(218.359887 142.758438)scale(0.1 -0.1)">
       <use xlink:href="#DejaVuSans-31"/>
       <use x="63.623047" xlink:href="#DejaVuSans-30"/>
       <use x="127.246094" xlink:href="#DejaVuSans-30"/>
       <use x="190.869141" xlink:href="#DejaVuSans-30"/>
      </g>
     </g>
    </g>
    <g id="xtick_3">
     <g id="line2d_3">
      <g>
       <use style="stroke:#000000;stroke-width:0.8;" x="336.968915" xlink:href="#m06c5ec5c6a" y="128.16"/>
      </g>
     </g>
     <g id="text_3">
      <!-- 2000 -->
      <defs>
       <path d="M 19.1875 8.296875 
L 53.609375 8.296875 
L 53.609375 0 
L 7.328125 0 
L 7.328125 8.296875 
Q 12.9375 14.109375 22.625 23.890625 
Q 32.328125 33.6875 34.8125 36.53125 
Q 39.546875 41.84375 41.421875 45.53125 
Q 43.3125 49.21875 43.3125 52.78125 
Q 43.3125 58.59375 39.234375 62.25 
Q 35.15625 65.921875 28.609375 65.921875 
Q 23.96875 65.921875 18.8125 64.3125 
Q 13.671875 62.703125 7.8125 59.421875 
L 7.8125 69.390625 
Q 13.765625 71.78125 18.9375 73 
Q 24.125 74.21875 28.421875 74.21875 
Q 39.75 74.21875 46.484375 68.546875 
Q 53.21875 62.890625 53.21875 53.421875 
Q 53.21875 48.921875 51.53125 44.890625 
Q 49.859375 40.875 45.40625 35.40625 
Q 44.1875 33.984375 37.640625 27.21875 
Q 31.109375 20.453125 19.1875 8.296875 
z
" id="DejaVuSans-32"/>
      </defs>
      <g transform="translate(324.243915 142.758438)scale(0.1 -0.1)">
       <use xlink:href="#DejaVuSans-32"/>
       <use x="63.623047" xlink:href="#DejaVuSans-30"/>
       <use x="127.246094" xlink:href="#DejaVuSans-30"/>
       <use x="190.869141" xlink:href="#DejaVuSans-30"/>
      </g>
     </g>
    </g>
    <g id="xtick_4">
     <g id="line2d_4">
      <g>
       <use style="stroke:#000000;stroke-width:0.8;" x="442.852942" xlink:href="#m06c5ec5c6a" y="128.16"/>
      </g>
     </g>
     <g id="text_4">
      <!-- 3000 -->
      <defs>
       <path d="M 40.578125 39.3125 
Q 47.65625 37.796875 51.625 33 
Q 55.609375 28.21875 55.609375 21.1875 
Q 55.609375 10.40625 48.1875 4.484375 
Q 40.765625 -1.421875 27.09375 -1.421875 
Q 22.515625 -1.421875 17.65625 -0.515625 
Q 12.796875 0.390625 7.625 2.203125 
L 7.625 11.71875 
Q 11.71875 9.328125 16.59375 8.109375 
Q 21.484375 6.890625 26.8125 6.890625 
Q 36.078125 6.890625 40.9375 10.546875 
Q 45.796875 14.203125 45.796875 21.1875 
Q 45.796875 27.640625 41.28125 31.265625 
Q 36.765625 34.90625 28.71875 34.90625 
L 20.21875 34.90625 
L 20.21875 43.015625 
L 29.109375 43.015625 
Q 36.375 43.015625 40.234375 45.921875 
Q 44.09375 48.828125 44.09375 54.296875 
Q 44.09375 59.90625 40.109375 62.90625 
Q 36.140625 65.921875 28.71875 65.921875 
Q 24.65625 65.921875 20.015625 65.03125 
Q 15.375 64.15625 9.8125 62.3125 
L 9.8125 71.09375 
Q 15.4375 72.65625 20.34375 73.4375 
Q 25.25 74.21875 29.59375 74.21875 
Q 40.828125 74.21875 47.359375 69.109375 
Q 53.90625 64.015625 53.90625 55.328125 
Q 53.90625 49.265625 50.4375 45.09375 
Q 46.96875 40.921875 40.578125 39.3125 
z
" id="DejaVuSans-33"/>
      </defs>
      <g transform="translate(430.127942 142.758438)scale(0.1 -0.1)">
       <use xlink:href="#DejaVuSans-33"/>
       <use x="63.623047" xlink:href="#DejaVuSans-30"/>
       <use x="127.246094" xlink:href="#DejaVuSans-30"/>
       <use x="190.869141" xlink:href="#DejaVuSans-30"/>
      </g>
     </g>
    </g>
    <g id="xtick_5">
     <g id="line2d_5">
      <g>
       <use style="stroke:#000000;stroke-width:0.8;" x="548.736969" xlink:href="#m06c5ec5c6a" y="128.16"/>
      </g>
     </g>
     <g id="text_5">
      <!-- 4000 -->
      <defs>
       <path d="M 37.796875 64.3125 
L 12.890625 25.390625 
L 37.796875 25.390625 
z
M 35.203125 72.90625 
L 47.609375 72.90625 
L 47.609375 25.390625 
L 58.015625 25.390625 
L 58.015625 17.1875 
L 47.609375 17.1875 
L 47.609375 0 
L 37.796875 0 
L 37.796875 17.1875 
L 4.890625 17.1875 
L 4.890625 26.703125 
z
" id="DejaVuSans-34"/>
      </defs>
      <g transform="translate(536.011969 142.758438)scale(0.1 -0.1)">
       <use xlink:href="#DejaVuSans-34"/>
       <use x="63.623047" xlink:href="#DejaVuSans-30"/>
       <use x="127.246094" xlink:href="#DejaVuSans-30"/>
       <use x="190.869141" xlink:href="#DejaVuSans-30"/>
      </g>
     </g>
    </g>
    <g id="xtick_6">
     <g id="line2d_6">
      <g>
       <use style="stroke:#000000;stroke-width:0.8;" x="654.620997" xlink:href="#m06c5ec5c6a" y="128.16"/>
      </g>
     </g>
     <g id="text_6">
      <!-- 5000 -->
      <defs>
       <path d="M 10.796875 72.90625 
L 49.515625 72.90625 
L 49.515625 64.59375 
L 19.828125 64.59375 
L 19.828125 46.734375 
Q 21.96875 47.46875 24.109375 47.828125 
Q 26.265625 48.1875 28.421875 48.1875 
Q 40.625 48.1875 47.75 41.5 
Q 54.890625 34.8125 54.890625 23.390625 
Q 54.890625 11.625 47.5625 5.09375 
Q 40.234375 -1.421875 26.90625 -1.421875 
Q 22.3125 -1.421875 17.546875 -0.640625 
Q 12.796875 0.140625 7.71875 1.703125 
L 7.71875 11.625 
Q 12.109375 9.234375 16.796875 8.0625 
Q 21.484375 6.890625 26.703125 6.890625 
Q 35.15625 6.890625 40.078125 11.328125 
Q 45.015625 15.765625 45.015625 23.390625 
Q 45.015625 31 40.078125 35.4375 
Q 35.15625 39.890625 26.703125 39.890625 
Q 22.75 39.890625 18.8125 39.015625 
Q 14.890625 38.140625 10.796875 36.28125 
z
" id="DejaVuSans-35"/>
      </defs>
      <g transform="translate(641.895997 142.758438)scale(0.1 -0.1)">
       <use xlink:href="#DejaVuSans-35"/>
       <use x="63.623047" xlink:href="#DejaVuSans-30"/>
       <use x="127.246094" xlink:href="#DejaVuSans-30"/>
       <use x="190.869141" xlink:href="#DejaVuSans-30"/>
      </g>
     </g>
    </g>
    <g id="xtick_7">
     <g id="line2d_7">
      <g>
       <use style="stroke:#000000;stroke-width:0.8;" x="760.505024" xlink:href="#m06c5ec5c6a" y="128.16"/>
      </g>
     </g>
     <g id="text_7">
      <!-- 6000 -->
      <defs>
       <path d="M 33.015625 40.375 
Q 26.375 40.375 22.484375 35.828125 
Q 18.609375 31.296875 18.609375 23.390625 
Q 18.609375 15.53125 22.484375 10.953125 
Q 26.375 6.390625 33.015625 6.390625 
Q 39.65625 6.390625 43.53125 10.953125 
Q 47.40625 15.53125 47.40625 23.390625 
Q 47.40625 31.296875 43.53125 35.828125 
Q 39.65625 40.375 33.015625 40.375 
z
M 52.59375 71.296875 
L 52.59375 62.3125 
Q 48.875 64.0625 45.09375 64.984375 
Q 41.3125 65.921875 37.59375 65.921875 
Q 27.828125 65.921875 22.671875 59.328125 
Q 17.53125 52.734375 16.796875 39.40625 
Q 19.671875 43.65625 24.015625 45.921875 
Q 28.375 48.1875 33.59375 48.1875 
Q 44.578125 48.1875 50.953125 41.515625 
Q 57.328125 34.859375 57.328125 23.390625 
Q 57.328125 12.15625 50.6875 5.359375 
Q 44.046875 -1.421875 33.015625 -1.421875 
Q 20.359375 -1.421875 13.671875 8.265625 
Q 6.984375 17.96875 6.984375 36.375 
Q 6.984375 53.65625 15.1875 63.9375 
Q 23.390625 74.21875 37.203125 74.21875 
Q 40.921875 74.21875 44.703125 73.484375 
Q 48.484375 72.75 52.59375 71.296875 
z
" id="DejaVuSans-36"/>
      </defs>
      <g transform="translate(747.780024 142.758438)scale(0.1 -0.1)">
       <use xlink:href="#DejaVuSans-36"/>
       <use x="63.623047" xlink:href="#DejaVuSans-30"/>
       <use x="127.246094" xlink:href="#DejaVuSans-30"/>
       <use x="190.869141" xlink:href="#DejaVuSans-30"/>
      </g>
     </g>
    </g>
    <g id="text_8">
     <!-- Simulation time (ms) -->
     <defs>
      <path d="M 53.515625 70.515625 
L 53.515625 60.890625 
Q 47.90625 63.578125 42.921875 64.890625 
Q 37.9375 66.21875 33.296875 66.21875 
Q 25.25 66.21875 20.875 63.09375 
Q 16.5 59.96875 16.5 54.203125 
Q 16.5 49.359375 19.40625 46.890625 
Q 22.3125 44.4375 30.421875 42.921875 
L 36.375 41.703125 
Q 47.40625 39.59375 52.65625 34.296875 
Q 57.90625 29 57.90625 20.125 
Q 57.90625 9.515625 50.796875 4.046875 
Q 43.703125 -1.421875 29.984375 -1.421875 
Q 24.8125 -1.421875 18.96875 -0.25 
Q 13.140625 0.921875 6.890625 3.21875 
L 6.890625 13.375 
Q 12.890625 10.015625 18.65625 8.296875 
Q 24.421875 6.59375 29.984375 6.59375 
Q 38.421875 6.59375 43.015625 9.90625 
Q 47.609375 13.234375 47.609375 19.390625 
Q 47.609375 24.75 44.3125 27.78125 
Q 41.015625 30.8125 33.5 32.328125 
L 27.484375 33.5 
Q 16.453125 35.6875 11.515625 40.375 
Q 6.59375 45.0625 6.59375 53.421875 
Q 6.59375 63.09375 13.40625 68.65625 
Q 20.21875 74.21875 32.171875 74.21875 
Q 37.3125 74.21875 42.625 73.28125 
Q 47.953125 72.359375 53.515625 70.515625 
z
" id="DejaVuSans-53"/>
      <path d="M 9.421875 54.6875 
L 18.40625 54.6875 
L 18.40625 0 
L 9.421875 0 
z
M 9.421875 75.984375 
L 18.40625 75.984375 
L 18.40625 64.59375 
L 9.421875 64.59375 
z
" id="DejaVuSans-69"/>
      <path d="M 52 44.1875 
Q 55.375 50.25 60.0625 53.125 
Q 64.75 56 71.09375 56 
Q 79.640625 56 84.28125 50.015625 
Q 88.921875 44.046875 88.921875 33.015625 
L 88.921875 0 
L 79.890625 0 
L 79.890625 32.71875 
Q 79.890625 40.578125 77.09375 44.375 
Q 74.3125 48.1875 68.609375 48.1875 
Q 61.625 48.1875 57.5625 43.546875 
Q 53.515625 38.921875 53.515625 30.90625 
L 53.515625 0 
L 44.484375 0 
L 44.484375 32.71875 
Q 44.484375 40.625 41.703125 44.40625 
Q 38.921875 48.1875 33.109375 48.1875 
Q 26.21875 48.1875 22.15625 43.53125 
Q 18.109375 38.875 18.109375 30.90625 
L 18.109375 0 
L 9.078125 0 
L 9.078125 54.6875 
L 18.109375 54.6875 
L 18.109375 46.1875 
Q 21.1875 51.21875 25.484375 53.609375 
Q 29.78125 56 35.6875 56 
Q 41.65625 56 45.828125 52.96875 
Q 50 49.953125 52 44.1875 
z
" id="DejaVuSans-6d"/>
      <path d="M 8.5 21.578125 
L 8.5 54.6875 
L 17.484375 54.6875 
L 17.484375 21.921875 
Q 17.484375 14.15625 20.5 10.265625 
Q 23.53125 6.390625 29.59375 6.390625 
Q 36.859375 6.390625 41.078125 11.03125 
Q 45.3125 15.671875 45.3125 23.6875 
L 45.3125 54.6875 
L 54.296875 54.6875 
L 54.296875 0 
L 45.3125 0 
L 45.3125 8.40625 
Q 42.046875 3.421875 37.71875 1 
Q 33.40625 -1.421875 27.6875 -1.421875 
Q 18.265625 -1.421875 13.375 4.4375 
Q 8.5 10.296875 8.5 21.578125 
z
M 31.109375 56 
z
" id="DejaVuSans-75"/>
      <path d="M 9.421875 75.984375 
L 18.40625 75.984375 
L 18.40625 0 
L 9.421875 0 
z
" id="DejaVuSans-6c"/>
      <path d="M 34.28125 27.484375 
Q 23.390625 27.484375 19.1875 25 
Q 14.984375 22.515625 14.984375 16.5 
Q 14.984375 11.71875 18.140625 8.90625 
Q 21.296875 6.109375 26.703125 6.109375 
Q 34.1875 6.109375 38.703125 11.40625 
Q 43.21875 16.703125 43.21875 25.484375 
L 43.21875 27.484375 
z
M 52.203125 31.203125 
L 52.203125 0 
L 43.21875 0 
L 43.21875 8.296875 
Q 40.140625 3.328125 35.546875 0.953125 
Q 30.953125 -1.421875 24.3125 -1.421875 
Q 15.921875 -1.421875 10.953125 3.296875 
Q 6 8.015625 6 15.921875 
Q 6 25.140625 12.171875 29.828125 
Q 18.359375 34.515625 30.609375 34.515625 
L 43.21875 34.515625 
L 43.21875 35.40625 
Q 43.21875 41.609375 39.140625 45 
Q 35.0625 48.390625 27.6875 48.390625 
Q 23 48.390625 18.546875 47.265625 
Q 14.109375 46.140625 10.015625 43.890625 
L 10.015625 52.203125 
Q 14.9375 54.109375 19.578125 55.046875 
Q 24.21875 56 28.609375 56 
Q 40.484375 56 46.34375 49.84375 
Q 52.203125 43.703125 52.203125 31.203125 
z
" id="DejaVuSans-61"/>
      <path d="M 18.3125 70.21875 
L 18.3125 54.6875 
L 36.8125 54.6875 
L 36.8125 47.703125 
L 18.3125 47.703125 
L 18.3125 18.015625 
Q 18.3125 11.328125 20.140625 9.421875 
Q 21.96875 7.515625 27.59375 7.515625 
L 36.8125 7.515625 
L 36.8125 0 
L 27.59375 0 
Q 17.1875 0 13.234375 3.875 
Q 9.28125 7.765625 9.28125 18.015625 
L 9.28125 47.703125 
L 2.6875 47.703125 
L 2.6875 54.6875 
L 9.28125 54.6875 
L 9.28125 70.21875 
z
" id="DejaVuSans-74"/>
      <path d="M 30.609375 48.390625 
Q 23.390625 48.390625 19.1875 42.75 
Q 14.984375 37.109375 14.984375 27.296875 
Q 14.984375 17.484375 19.15625 11.84375 
Q 23.34375 6.203125 30.609375 6.203125 
Q 37.796875 6.203125 41.984375 11.859375 
Q 46.1875 17.53125 46.1875 27.296875 
Q 46.1875 37.015625 41.984375 42.703125 
Q 37.796875 48.390625 30.609375 48.390625 
z
M 30.609375 56 
Q 42.328125 56 49.015625 48.375 
Q 55.71875 40.765625 55.71875 27.296875 
Q 55.71875 13.875 49.015625 6.21875 
Q 42.328125 -1.421875 30.609375 -1.421875 
Q 18.84375 -1.421875 12.171875 6.21875 
Q 5.515625 13.875 5.515625 27.296875 
Q 5.515625 40.765625 12.171875 48.375 
Q 18.84375 56 30.609375 56 
z
" id="DejaVuSans-6f"/>
      <path d="M 54.890625 33.015625 
L 54.890625 0 
L 45.90625 0 
L 45.90625 32.71875 
Q 45.90625 40.484375 42.875 44.328125 
Q 39.84375 48.1875 33.796875 48.1875 
Q 26.515625 48.1875 22.3125 43.546875 
Q 18.109375 38.921875 18.109375 30.90625 
L 18.109375 0 
L 9.078125 0 
L 9.078125 54.6875 
L 18.109375 54.6875 
L 18.109375 46.1875 
Q 21.34375 51.125 25.703125 53.5625 
Q 30.078125 56 35.796875 56 
Q 45.21875 56 50.046875 50.171875 
Q 54.890625 44.34375 54.890625 33.015625 
z
" id="DejaVuSans-6e"/>
      <path id="DejaVuSans-20"/>
      <path d="M 56.203125 29.59375 
L 56.203125 25.203125 
L 14.890625 25.203125 
Q 15.484375 15.921875 20.484375 11.0625 
Q 25.484375 6.203125 34.421875 6.203125 
Q 39.59375 6.203125 44.453125 7.46875 
Q 49.3125 8.734375 54.109375 11.28125 
L 54.109375 2.78125 
Q 49.265625 0.734375 44.1875 -0.34375 
Q 39.109375 -1.421875 33.890625 -1.421875 
Q 20.796875 -1.421875 13.15625 6.1875 
Q 5.515625 13.8125 5.515625 26.8125 
Q 5.515625 40.234375 12.765625 48.109375 
Q 20.015625 56 32.328125 56 
Q 43.359375 56 49.78125 48.890625 
Q 56.203125 41.796875 56.203125 29.59375 
z
M 47.21875 32.234375 
Q 47.125 39.59375 43.09375 43.984375 
Q 39.0625 48.390625 32.421875 48.390625 
Q 24.90625 48.390625 20.390625 44.140625 
Q 15.875 39.890625 15.1875 32.171875 
z
" id="DejaVuSans-65"/>
      <path d="M 31 75.875 
Q 24.46875 64.65625 21.28125 53.65625 
Q 18.109375 42.671875 18.109375 31.390625 
Q 18.109375 20.125 21.3125 9.0625 
Q 24.515625 -2 31 -13.1875 
L 23.1875 -13.1875 
Q 15.875 -1.703125 12.234375 9.375 
Q 8.59375 20.453125 8.59375 31.390625 
Q 8.59375 42.28125 12.203125 53.3125 
Q 15.828125 64.359375 23.1875 75.875 
z
" id="DejaVuSans-28"/>
      <path d="M 44.28125 53.078125 
L 44.28125 44.578125 
Q 40.484375 46.53125 36.375 47.5 
Q 32.28125 48.484375 27.875 48.484375 
Q 21.1875 48.484375 17.84375 46.4375 
Q 14.5 44.390625 14.5 40.28125 
Q 14.5 37.15625 16.890625 35.375 
Q 19.28125 33.59375 26.515625 31.984375 
L 29.59375 31.296875 
Q 39.15625 29.25 43.1875 25.515625 
Q 47.21875 21.78125 47.21875 15.09375 
Q 47.21875 7.46875 41.1875 3.015625 
Q 35.15625 -1.421875 24.609375 -1.421875 
Q 20.21875 -1.421875 15.453125 -0.5625 
Q 10.6875 0.296875 5.421875 2 
L 5.421875 11.28125 
Q 10.40625 8.6875 15.234375 7.390625 
Q 20.0625 6.109375 24.8125 6.109375 
Q 31.15625 6.109375 34.5625 8.28125 
Q 37.984375 10.453125 37.984375 14.40625 
Q 37.984375 18.0625 35.515625 20.015625 
Q 33.0625 21.96875 24.703125 23.78125 
L 21.578125 24.515625 
Q 13.234375 26.265625 9.515625 29.90625 
Q 5.8125 33.546875 5.8125 39.890625 
Q 5.8125 47.609375 11.28125 51.796875 
Q 16.75 56 26.8125 56 
Q 31.78125 56 36.171875 55.265625 
Q 40.578125 54.546875 44.28125 53.078125 
z
" id="DejaVuSans-73"/>
      <path d="M 8.015625 75.875 
L 15.828125 75.875 
Q 23.140625 64.359375 26.78125 53.3125 
Q 30.421875 42.28125 30.421875 31.390625 
Q 30.421875 20.453125 26.78125 9.375 
Q 23.140625 -1.703125 15.828125 -13.1875 
L 8.015625 -13.1875 
Q 14.5 -2 17.703125 9.0625 
Q 20.90625 20.125 20.90625 31.390625 
Q 20.90625 42.671875 17.703125 53.65625 
Q 14.5 64.65625 8.015625 75.875 
z
" id="DejaVuSans-29"/>
     </defs>
     <g transform="translate(390.316406 156.436563)scale(0.1 -0.1)">
      <use xlink:href="#DejaVuSans-53"/>
      <use x="63.476562" xlink:href="#DejaVuSans-69"/>
      <use x="91.259766" xlink:href="#DejaVuSans-6d"/>
      <use x="188.671875" xlink:href="#DejaVuSans-75"/>
      <use x="252.050781" xlink:href="#DejaVuSans-6c"/>
      <use x="279.833984" xlink:href="#DejaVuSans-61"/>
      <use x="341.113281" xlink:href="#DejaVuSans-74"/>
      <use x="380.322266" xlink:href="#DejaVuSans-69"/>
      <use x="408.105469" xlink:href="#DejaVuSans-6f"/>
      <use x="469.287109" xlink:href="#DejaVuSans-6e"/>
      <use x="532.666016" xlink:href="#DejaVuSans-20"/>
      <use x="564.453125" xlink:href="#DejaVuSans-74"/>
      <use x="603.662109" xlink:href="#DejaVuSans-69"/>
      <use x="631.445312" xlink:href="#DejaVuSans-6d"/>
      <use x="728.857422" xlink:href="#DejaVuSans-65"/>
      <use x="790.380859" xlink:href="#DejaVuSans-20"/>
      <use x="822.167969" xlink:href="#DejaVuSans-28"/>
      <use x="861.181641" xlink:href="#DejaVuSans-6d"/>
      <use x="958.59375" xlink:href="#DejaVuSans-73"/>
      <use x="1010.693359" xlink:href="#DejaVuSans-29"/>
     </g>
    </g>
   </g>
   <g id="matplotlib.axis_2">
    <g id="ytick_1">
     <g id="line2d_8">
      <defs>
       <path d="M 0 0 
L -3.5 0 
" id="m77153aadc7" style="stroke:#000000;stroke-width:0.8;"/>
      </defs>
      <g>
       <use style="stroke:#000000;stroke-width:0.8;" x="108" xlink:href="#m77153aadc7" y="123.12"/>
      </g>
     </g>
     <g id="text_9">
      <!-- 0 -->
      <g transform="translate(94.6375 126.919219)scale(0.1 -0.1)">
       <use xlink:href="#DejaVuSans-30"/>
      </g>
     </g>
    </g>
    <g id="ytick_2">
     <g id="line2d_9">
      <g>
       <use style="stroke:#000000;stroke-width:0.8;" x="108" xlink:href="#m77153aadc7" y="93.472941"/>
      </g>
     </g>
     <g id="text_10">
      <!-- 100 -->
      <g transform="translate(81.9125 97.27216)scale(0.1 -0.1)">
       <use xlink:href="#DejaVuSans-31"/>
       <use x="63.623047" xlink:href="#DejaVuSans-30"/>
       <use x="127.246094" xlink:href="#DejaVuSans-30"/>
      </g>
     </g>
    </g>
    <g id="ytick_3">
     <g id="line2d_10">
      <g>
       <use style="stroke:#000000;stroke-width:0.8;" x="108" xlink:href="#m77153aadc7" y="63.825882"/>
      </g>
     </g>
     <g id="text_11">
      <!-- 200 -->
      <g transform="translate(81.9125 67.625101)scale(0.1 -0.1)">
       <use xlink:href="#DejaVuSans-32"/>
       <use x="63.623047" xlink:href="#DejaVuSans-30"/>
       <use x="127.246094" xlink:href="#DejaVuSans-30"/>
      </g>
     </g>
    </g>
    <g id="ytick_4">
     <g id="line2d_11">
      <g>
       <use style="stroke:#000000;stroke-width:0.8;" x="108" xlink:href="#m77153aadc7" y="34.178824"/>
      </g>
     </g>
     <g id="text_12">
      <!-- 300 -->
      <g transform="translate(81.9125 37.978042)scale(0.1 -0.1)">
       <use xlink:href="#DejaVuSans-33"/>
       <use x="63.623047" xlink:href="#DejaVuSans-30"/>
       <use x="127.246094" xlink:href="#DejaVuSans-30"/>
      </g>
     </g>
    </g>
    <g id="text_13">
     <!-- 0 -->
     <g transform="translate(75.832812 75.90125)rotate(-90)scale(0.1 -0.1)">
      <use xlink:href="#DejaVuSans-30"/>
     </g>
    </g>
   </g>
   <g id="line2d_12">
    <path clip-path="url(#pd38a489807)" d="M 138.436364 118.376471 
L 149.024766 118.376471 
L 149.342418 120.748235 
L 149.448302 120.748235 
L 149.660071 121.934118 
L 149.765955 121.934118 
L 149.977723 123.12 
L 167.554471 123.12 
L 167.872123 120.748235 
L 167.978007 120.748235 
L 168.189775 119.562353 
L 168.295659 119.562353 
L 168.507427 118.376471 
L 169.142732 118.376471 
L 169.566268 114.818824 
L 169.672152 114.818824 
L 169.989804 112.447059 
L 170.201572 112.447059 
L 170.41334 111.261176 
L 190.637189 111.261176 
L 190.954841 108.889412 
L 191.060725 108.889412 
L 191.272493 107.703529 
L 191.378377 107.703529 
L 191.590145 106.517647 
L 192.119565 106.517647 
L 192.543102 102.96 
L 192.648986 102.96 
L 192.966638 100.588235 
L 193.178406 100.588235 
L 193.390174 99.402353 
L 194.025478 99.402353 
L 194.34313 101.774118 
L 194.449014 101.774118 
L 194.660782 102.96 
L 194.766666 102.96 
L 194.978434 104.145882 
L 195.613738 104.145882 
L 196.037274 107.703529 
L 196.143158 107.703529 
L 196.460811 110.075294 
L 196.672579 110.075294 
L 196.884347 111.261176 
L 199.002027 111.261176 
L 199.319679 108.889412 
L 199.425563 108.889412 
L 199.637331 107.703529 
L 199.743215 107.703529 
L 199.954983 106.517647 
L 202.178548 106.517647 
L 202.4962 104.145882 
L 202.602084 104.145882 
L 202.813852 102.96 
L 202.919736 102.96 
L 203.131504 101.774118 
L 203.449156 101.774118 
L 203.660924 100.588235 
L 217.108196 100.588235 
L 217.425848 102.96 
L 217.531732 102.96 
L 217.7435 104.145882 
L 217.849384 104.145882 
L 218.061152 105.331765 
L 218.590572 105.331765 
L 219.014108 108.889412 
L 219.119992 108.889412 
L 219.437644 111.261176 
L 219.649413 111.261176 
L 219.861181 112.447059 
L 224.520078 112.447059 
L 224.83773 110.075294 
L 224.943614 110.075294 
L 225.155382 108.889412 
L 225.261266 108.889412 
L 225.684802 105.331765 
L 225.790686 106.517647 
L 225.89657 105.331765 
L 226.002454 106.517647 
L 226.214222 105.331765 
L 226.531874 105.331765 
L 226.743642 104.145882 
L 228.649555 104.145882 
L 228.967207 106.517647 
L 229.073091 106.517647 
L 229.284859 107.703529 
L 229.390743 107.703529 
L 229.602511 108.889412 
L 229.920163 108.889412 
L 230.131931 110.075294 
L 231.720192 110.075294 
L 232.037844 107.703529 
L 232.143728 107.703529 
L 232.355496 106.517647 
L 232.46138 106.517647 
L 232.673148 105.331765 
L 242.73213 105.331765 
L 243.049783 102.96 
L 243.155667 102.96 
L 243.367435 101.774118 
L 243.473319 101.774118 
L 243.685087 100.588235 
L 250.991085 100.588235 
L 251.308737 102.96 
L 251.414621 102.96 
L 251.626389 104.145882 
L 251.732273 104.145882 
L 252.367577 110.075294 
L 252.473461 110.075294 
L 252.791113 112.447059 
L 253.002881 112.447059 
L 253.214649 113.632941 
L 258.191198 113.632941 
L 258.508851 116.004706 
L 258.614735 116.004706 
L 258.826503 117.190588 
L 258.932387 117.190588 
L 259.144155 118.376471 
L 269.203137 118.376471 
L 269.520789 120.748235 
L 269.626673 120.748235 
L 269.838441 121.934118 
L 269.944325 121.934118 
L 270.156094 123.12 
L 284.979857 123.12 
L 285.297509 120.748235 
L 285.403393 120.748235 
L 285.615162 119.562353 
L 285.721046 119.562353 
L 285.932814 118.376471 
L 293.344696 118.376471 
L 293.662348 116.004706 
L 293.768232 116.004706 
L 293.98 114.818824 
L 294.085884 114.818824 
L 294.297652 113.632941 
L 296.944752 113.632941 
L 297.262405 111.261176 
L 297.368289 111.261176 
L 297.580057 110.075294 
L 297.685941 110.075294 
L 297.897709 108.889412 
L 298.215361 108.889412 
L 298.427129 107.703529 
L 311.450864 107.703529 
L 311.768516 110.075294 
L 311.8744 110.075294 
L 312.086168 111.261176 
L 312.192052 111.261176 
L 312.40382 112.447059 
L 315.686225 112.447059 
L 316.003877 110.075294 
L 316.109761 110.075294 
L 316.321529 108.889412 
L 316.427413 108.889412 
L 316.639182 107.703529 
L 318.015674 107.703529 
L 319.074514 97.030588 
L 319.180398 97.030588 
L 319.49805 94.658824 
L 319.709818 94.658824 
L 319.815702 93.472941 
L 320.133354 95.844706 
L 320.239238 95.844706 
L 320.451006 97.030588 
L 320.556891 97.030588 
L 320.768659 98.216471 
L 320.980427 98.216471 
L 321.298079 95.844706 
L 321.403963 95.844706 
L 321.721615 93.472941 
L 321.933383 93.472941 
L 322.145151 92.287059 
L 323.415759 92.287059 
L 323.733411 94.658824 
L 323.839295 94.658824 
L 324.051063 95.844706 
L 324.156947 95.844706 
L 324.368716 97.030588 
L 324.686368 97.030588 
L 324.898136 98.216471 
L 327.227584 98.216471 
L 327.545236 95.844706 
L 327.65112 95.844706 
L 327.862888 94.658824 
L 327.968772 94.658824 
L 328.18054 93.472941 
L 329.557033 93.472941 
L 329.874685 91.101176 
L 329.980569 91.101176 
L 330.298221 88.729412 
L 330.509989 88.729412 
L 330.721757 87.543529 
L 340.145436 87.543529 
L 340.463088 85.171765 
L 340.568972 85.171765 
L 340.78074 83.985882 
L 340.886624 83.985882 
L 341.098392 82.8 
L 342.157232 82.8 
L 342.474884 85.171765 
L 342.580768 85.171765 
L 342.792536 86.357647 
L 342.89842 86.357647 
L 343.110188 87.543529 
L 344.486681 87.543529 
L 345.545521 98.216471 
L 345.651405 98.216471 
L 345.969057 100.588235 
L 346.180825 100.588235 
L 346.392593 101.774118 
L 347.451433 101.774118 
L 347.769086 104.145882 
L 347.87497 104.145882 
L 348.192622 106.517647 
L 348.40439 106.517647 
L 348.616158 107.703529 
L 349.569114 107.703529 
L 349.886766 105.331765 
L 349.99265 105.331765 
L 350.204418 104.145882 
L 350.310302 104.145882 
L 350.52207 102.96 
L 353.698591 102.96 
L 354.016243 105.331765 
L 354.122127 105.331765 
L 354.333895 106.517647 
L 354.439779 106.517647 
L 354.651547 107.703529 
L 356.02804 107.703529 
L 356.345692 110.075294 
L 356.451576 110.075294 
L 356.769228 112.447059 
L 356.980996 112.447059 
L 357.192764 113.632941 
L 360.792821 113.632941 
L 361.110473 111.261176 
L 361.216357 111.261176 
L 361.428125 110.075294 
L 361.534009 110.075294 
L 361.745777 108.889412 
L 366.616442 108.889412 
L 366.934094 111.261176 
L 367.039978 111.261176 
L 367.251747 112.447059 
L 367.357631 112.447059 
L 367.569399 113.632941 
L 369.157659 113.632941 
L 369.475311 111.261176 
L 369.581195 111.261176 
L 369.792963 110.075294 
L 369.898847 110.075294 
L 370.110615 108.889412 
L 376.040121 108.889412 
L 376.357773 111.261176 
L 376.463657 111.261176 
L 376.675425 112.447059 
L 376.781309 112.447059 
L 376.993077 113.632941 
L 387.263828 113.632941 
L 387.58148 116.004706 
L 387.687364 116.004706 
L 387.899132 117.190588 
L 388.005016 117.190588 
L 388.216784 118.376471 
L 395.628666 118.376471 
L 395.946318 120.748235 
L 396.052202 120.748235 
L 396.26397 121.934118 
L 396.369854 121.934118 
L 396.581622 123.12 
L 397.32281 123.12 
L 397.640462 120.748235 
L 397.746346 120.748235 
L 397.958114 119.562353 
L 398.063998 119.562353 
L 398.275767 118.376471 
L 408.758285 118.376471 
L 409.075937 116.004706 
L 409.181821 116.004706 
L 409.393589 114.818824 
L 409.499473 114.818824 
L 409.711241 113.632941 
L 421.570253 113.632941 
L 421.887905 111.261176 
L 421.993789 111.261176 
L 422.205557 110.075294 
L 422.311441 110.075294 
L 422.523209 108.889412 
L 423.793817 108.889412 
L 424.111469 111.261176 
L 424.217353 111.261176 
L 424.429121 112.447059 
L 424.535005 112.447059 
L 424.746773 113.632941 
L 435.229292 113.632941 
L 435.546944 116.004706 
L 435.652828 116.004706 
L 435.864596 117.190588 
L 435.97048 117.190588 
L 436.182248 118.376471 
L 448.041259 118.376471 
L 448.358911 120.748235 
L 448.464795 120.748235 
L 448.676564 121.934118 
L 448.782448 121.934118 
L 448.994216 123.12 
L 456.088445 123.12 
L 457.041402 113.632941 
L 457.147286 113.632941 
L 457.464938 111.261176 
L 457.676706 111.261176 
L 457.888474 110.075294 
L 459.264966 110.075294 
L 459.582618 107.703529 
L 459.688502 107.703529 
L 460.006154 105.331765 
L 460.217922 105.331765 
L 460.747343 100.588235 
L 460.853227 100.588235 
L 461.170879 98.216471 
L 461.276763 98.216471 
L 461.488531 97.030588 
L 461.594415 97.030588 
L 461.806183 95.844706 
L 466.782732 95.844706 
L 467.100384 93.472941 
L 467.206268 93.472941 
L 467.418036 92.287059 
L 467.52392 92.287059 
L 467.735688 91.101176 
L 477.265251 91.101176 
L 477.582903 88.729412 
L 477.688787 88.729412 
L 478.324091 82.8 
L 478.429975 82.8 
L 478.747627 80.428235 
L 478.853511 80.428235 
L 479.065279 79.242353 
L 479.171163 79.242353 
L 479.382931 78.056471 
L 482.559452 78.056471 
L 483.512408 87.543529 
L 483.618293 87.543529 
L 483.935945 89.915294 
L 484.147713 89.915294 
L 484.359481 91.101176 
L 485.735973 91.101176 
L 486.053625 93.472941 
L 486.159509 93.472941 
L 486.477161 95.844706 
L 486.688929 95.844706 
L 487.218349 100.588235 
L 487.324233 100.588235 
L 487.641886 102.96 
L 487.74777 102.96 
L 487.959538 104.145882 
L 488.065422 104.145882 
L 488.27719 105.331765 
L 493.253739 105.331765 
L 493.571391 107.703529 
L 493.677275 107.703529 
L 493.889043 108.889412 
L 493.994927 108.889412 
L 494.206695 110.075294 
L 496.43026 110.075294 
L 496.747912 107.703529 
L 496.853796 107.703529 
L 497.065564 106.517647 
L 497.171448 106.517647 
L 497.383216 105.331765 
L 500.983273 105.331765 
L 501.300925 102.96 
L 501.406809 102.96 
L 501.618577 101.774118 
L 501.724461 101.774118 
L 501.936229 100.588235 
L 502.253881 100.588235 
L 502.465649 99.402353 
L 503.736258 99.402353 
L 504.05391 101.774118 
L 504.159794 101.774118 
L 504.795098 107.703529 
L 504.900982 107.703529 
L 505.218634 110.075294 
L 505.324518 110.075294 
L 505.536286 111.261176 
L 505.64217 111.261176 
L 505.853938 112.447059 
L 507.653967 112.447059 
L 507.971619 110.075294 
L 508.077503 110.075294 
L 508.289271 108.889412 
L 508.395155 108.889412 
L 508.606923 107.703529 
L 520.36005 107.703529 
L 520.677702 105.331765 
L 520.783586 105.331765 
L 520.995354 104.145882 
L 521.101238 104.145882 
L 521.313006 102.96 
L 522.901267 102.96 
L 523.218919 105.331765 
L 523.324803 105.331765 
L 523.536571 106.517647 
L 523.642455 106.517647 
L 523.854223 107.703529 
L 527.45428 107.703529 
L 527.771932 110.075294 
L 527.877816 110.075294 
L 528.089584 111.261176 
L 528.195468 111.261176 
L 528.407236 112.447059 
L 528.724888 112.447059 
L 528.936656 113.632941 
L 534.124974 113.632941 
L 534.442626 116.004706 
L 534.54851 116.004706 
L 534.760278 117.190588 
L 534.866162 117.190588 
L 535.07793 118.376471 
L 546.513405 118.376471 
L 546.831057 116.004706 
L 546.936941 117.190588 
L 547.042825 116.004706 
L 547.254593 117.190588 
L 547.572245 117.190588 
L 547.784013 118.376471 
L 568.431398 118.376471 
L 568.74905 116.004706 
L 568.854934 116.004706 
L 569.066703 114.818824 
L 569.172587 114.818824 
L 569.384355 113.632941 
L 572.984412 113.632941 
L 573.302064 116.004706 
L 573.407948 116.004706 
L 573.619716 117.190588 
L 573.7256 117.190588 
L 573.937368 118.376471 
L 576.160932 118.376471 
L 576.478584 116.004706 
L 576.584468 116.004706 
L 576.796236 114.818824 
L 576.902121 114.818824 
L 577.113889 113.632941 
L 577.643309 113.632941 
L 578.066845 110.075294 
L 578.172729 110.075294 
L 578.490381 107.703529 
L 578.702149 107.703529 
L 578.913917 106.517647 
L 581.34925 106.517647 
L 581.561018 105.331765 
L 582.40809 105.331765 
L 582.619858 104.145882 
L 583.361046 104.145882 
L 583.572814 102.96 
L 583.678698 102.96 
L 583.890466 101.774118 
L 584.314002 101.774118 
L 584.52577 100.588235 
L 584.631655 100.588235 
L 584.843423 99.402353 
L 585.161075 99.402353 
L 585.372843 98.216471 
L 585.478727 98.216471 
L 585.690495 97.030588 
L 586.008147 97.030588 
L 586.325799 94.658824 
L 586.537567 94.658824 
L 586.749335 93.472941 
L 586.855219 93.472941 
L 587.172871 91.101176 
L 587.384639 91.101176 
L 587.596407 89.915294 
L 587.702291 89.915294 
L 588.019943 87.543529 
L 588.231711 87.543529 
L 588.443479 86.357647 
L 588.549364 86.357647 
L 588.867016 83.985882 
L 589.078784 83.985882 
L 589.925856 75.684706 
L 590.03174 75.684706 
L 590.56116 70.941176 
L 590.667044 70.941176 
L 590.878812 69.755294 
L 590.984696 69.755294 
L 591.302348 67.383529 
L 591.408232 67.383529 
L 591.62 66.197647 
L 591.725884 66.197647 
L 592.043536 63.825882 
L 592.14942 63.825882 
L 592.361189 62.64 
L 592.467073 62.64 
L 592.784725 60.268235 
L 592.890609 60.268235 
L 593.102377 59.082353 
L 593.208261 59.082353 
L 593.420029 57.896471 
L 593.525913 57.896471 
L 593.843565 55.524706 
L 594.055333 55.524706 
L 594.267101 54.338824 
L 594.372985 54.338824 
L 594.690637 51.967059 
L 595.114173 51.967059 
L 595.325941 53.152941 
L 596.173013 53.152941 
L 596.490666 50.781176 
L 596.702434 50.781176 
L 596.914202 49.595294 
L 597.231854 49.595294 
L 597.443622 48.409412 
L 597.549506 48.409412 
L 597.761274 47.223529 
L 598.290694 47.223529 
L 598.502462 46.037647 
L 598.608346 46.037647 
L 599.24365 40.108235 
L 599.349534 40.108235 
L 599.667186 37.736471 
L 599.77307 37.736471 
L 600.090722 35.364706 
L 600.302491 35.364706 
L 600.620143 32.992941 
L 600.726027 32.992941 
L 600.937795 31.807059 
L 601.043679 31.807059 
L 601.255447 30.621176 
L 601.784867 30.621176 
L 601.996635 29.435294 
L 602.102519 29.435294 
L 602.314287 28.249412 
L 602.631939 28.249412 
L 602.949591 30.621176 
L 604.114316 30.621176 
L 604.537852 34.178824 
L 604.643736 32.992941 
L 604.74962 34.178824 
L 605.173156 30.621176 
L 605.27904 31.807059 
L 605.596692 29.435294 
L 605.702576 29.435294 
L 605.914344 28.249412 
L 606.020228 28.249412 
L 606.33788 25.877647 
L 606.443764 25.877647 
L 606.655532 24.691765 
L 606.761416 24.691765 
L 606.973184 23.505882 
L 607.820256 23.505882 
L 607.926141 24.691765 
L 608.137909 23.505882 
L 608.349677 23.505882 
L 608.561445 22.32 
L 608.879097 22.32 
L 609.090865 23.505882 
L 609.832053 23.505882 
L 610.043821 24.691765 
L 610.149705 24.691765 
L 610.255589 25.877647 
L 610.467357 24.691765 
L 610.785009 24.691765 
L 610.996777 25.877647 
L 611.102661 25.877647 
L 611.314429 27.063529 
L 611.632081 27.063529 
L 611.84385 28.249412 
L 611.949734 28.249412 
L 612.161502 29.435294 
L 612.479154 29.435294 
L 612.796806 31.807059 
L 613.326226 31.807059 
L 613.643878 34.178824 
L 613.855646 34.178824 
L 614.067414 35.364706 
L 614.173298 35.364706 
L 614.49095 37.736471 
L 614.702718 37.736471 
L 614.914486 38.922353 
L 615.02037 38.922353 
L 615.338022 41.294118 
L 615.54979 41.294118 
L 616.396863 49.595294 
L 616.502747 49.595294 
L 617.032167 54.338824 
L 617.138051 54.338824 
L 617.349819 55.524706 
L 617.455703 55.524706 
L 617.773355 57.896471 
L 618.091007 57.896471 
L 618.196891 56.710588 
L 618.302775 57.896471 
L 618.408659 56.710588 
L 618.514543 57.896471 
L 618.620427 56.710588 
L 618.832195 57.896471 
L 618.938079 56.710588 
L 619.255731 59.082353 
L 619.361615 59.082353 
L 619.573384 60.268235 
L 619.679268 60.268235 
L 619.891036 61.454118 
L 619.99692 61.454118 
L 620.314572 63.825882 
L 620.52634 63.825882 
L 620.738108 65.011765 
L 620.843992 65.011765 
L 621.161644 67.383529 
L 621.373412 67.383529 
L 621.58518 68.569412 
L 621.796948 68.569412 
L 622.008716 69.755294 
L 622.1146 69.755294 
L 622.326368 70.941176 
L 622.64402 70.941176 
L 622.961672 73.312941 
L 623.17344 73.312941 
L 623.385208 74.498824 
L 623.702861 74.498824 
L 623.914629 75.684706 
L 624.020513 75.684706 
L 624.232281 76.870588 
L 624.761701 76.870588 
L 624.973469 78.056471 
L 625.079353 78.056471 
L 625.714657 83.985882 
L 625.820541 83.985882 
L 626.138193 86.357647 
L 626.244077 86.357647 
L 626.561729 88.729412 
L 626.773497 88.729412 
L 627.091149 91.101176 
L 627.197033 91.101176 
L 627.408802 92.287059 
L 627.514686 92.287059 
L 627.726454 93.472941 
L 628.255874 93.472941 
L 628.467642 94.658824 
L 628.573526 94.658824 
L 628.785294 95.844706 
L 629.526482 95.844706 
L 629.73825 97.030588 
L 629.844134 97.030588 
L 630.055902 98.216471 
L 631.008858 98.216471 
L 631.644163 104.145882 
L 631.750047 104.145882 
L 632.067699 106.517647 
L 632.173583 106.517647 
L 632.385351 107.703529 
L 632.491235 107.703529 
L 632.808887 110.075294 
L 632.914771 110.075294 
L 633.126539 111.261176 
L 633.232423 111.261176 
L 633.444191 112.447059 
L 634.397147 112.447059 
L 634.608915 113.632941 
L 634.820683 113.632941 
L 635.032451 114.818824 
L 636.726596 114.818824 
L 636.938364 116.004706 
L 638.103088 116.004706 
L 638.42074 113.632941 
L 638.526624 113.632941 
L 638.738392 112.447059 
L 638.844276 112.447059 
L 639.056045 111.261176 
L 639.479581 111.261176 
L 639.691349 112.447059 
L 644.350246 112.447059 
L 644.667898 114.818824 
L 644.773782 114.818824 
L 645.091434 117.190588 
L 645.303202 117.190588 
L 645.51497 118.376471 
L 651.338592 118.376471 
L 651.656244 116.004706 
L 651.762128 116.004706 
L 651.973896 114.818824 
L 652.07978 114.818824 
L 652.291548 113.632941 
L 652.503316 113.632941 
L 653.032736 108.889412 
L 653.13862 108.889412 
L 653.350388 107.703529 
L 653.456272 107.703529 
L 653.66804 106.517647 
L 653.985692 106.517647 
L 654.19746 105.331765 
L 655.785721 105.331765 
L 656.103373 102.96 
L 656.209257 102.96 
L 656.526909 100.588235 
L 656.738677 100.588235 
L 656.950445 99.402353 
L 661.503458 99.402353 
L 661.82111 97.030588 
L 661.926994 97.030588 
L 662.138762 95.844706 
L 662.244646 95.844706 
L 662.774067 91.101176 
L 662.879951 91.101176 
L 663.197603 88.729412 
L 663.303487 88.729412 
L 663.515255 87.543529 
L 663.621139 87.543529 
L 663.832907 86.357647 
L 664.574095 86.357647 
L 664.891747 88.729412 
L 664.997631 88.729412 
L 665.209399 89.915294 
L 665.315283 89.915294 
L 665.527051 91.101176 
L 677.809599 91.101176 
L 678.127251 93.472941 
L 678.233135 93.472941 
L 678.444903 94.658824 
L 678.550787 94.658824 
L 678.762555 95.844706 
L 678.974323 95.844706 
L 679.503743 100.588235 
L 679.609627 100.588235 
L 679.821395 101.774118 
L 679.927279 101.774118 
L 680.139047 102.96 
L 680.456699 102.96 
L 680.668467 104.145882 
L 682.04496 104.145882 
L 682.256728 102.96 
L 682.680264 102.96 
L 682.786148 104.145882 
L 682.892032 102.96 
L 683.1038 104.145882 
L 683.209684 104.145882 
L 683.421452 105.331765 
L 687.445045 105.331765 
L 687.762697 102.96 
L 687.868581 102.96 
L 687.974465 101.774118 
L 688.186233 102.96 
L 688.398001 102.96 
L 688.609769 104.145882 
L 688.715653 104.145882 
L 689.245073 108.889412 
L 689.350957 108.889412 
L 689.66861 111.261176 
L 689.774494 111.261176 
L 689.986262 112.447059 
L 690.092146 112.447059 
L 690.303914 113.632941 
L 691.892174 113.632941 
L 692.209826 111.261176 
L 692.31571 111.261176 
L 692.527478 110.075294 
L 692.633362 110.075294 
L 692.84513 108.889412 
L 693.162782 108.889412 
L 693.374551 107.703529 
L 695.386347 107.703529 
L 695.703999 105.331765 
L 695.809883 105.331765 
L 696.021651 104.145882 
L 696.127535 104.145882 
L 696.339303 102.96 
L 696.656955 102.96 
L 696.868723 101.774118 
L 703.433533 101.774118 
L 703.751185 99.402353 
L 703.857069 99.402353 
L 704.068837 98.216471 
L 704.174721 98.216471 
L 704.386489 97.030588 
L 707.139474 97.030588 
L 707.457126 94.658824 
L 707.56301 94.658824 
L 707.774778 93.472941 
L 707.880662 93.472941 
L 708.09243 92.287059 
L 708.410082 92.287059 
L 708.515966 91.101176 
L 708.833618 93.472941 
L 708.939503 93.472941 
L 709.151271 94.658824 
L 709.257155 94.658824 
L 709.468923 95.844706 
L 713.916052 95.844706 
L 714.233704 98.216471 
L 714.339588 98.216471 
L 714.551356 99.402353 
L 714.65724 99.402353 
L 714.869008 100.588235 
L 717.092573 100.588235 
L 717.410225 98.216471 
L 717.516109 98.216471 
L 717.727877 97.030588 
L 717.833761 97.030588 
L 718.045529 95.844706 
L 718.151413 95.844706 
L 718.469065 93.472941 
L 718.998485 93.472941 
L 719.104369 92.287059 
L 719.316137 93.472941 
L 719.527905 92.287059 
L 719.633789 92.287059 
L 719.845557 93.472941 
L 721.857354 93.472941 
L 722.175006 95.844706 
L 722.28089 95.844706 
L 722.492658 97.030588 
L 722.598542 97.030588 
L 722.81031 98.216471 
L 723.127962 98.216471 
L 723.233846 99.402353 
L 723.551498 97.030588 
L 723.657382 97.030588 
L 723.86915 95.844706 
L 723.975034 95.844706 
L 724.186802 94.658824 
L 729.90454 94.658824 
L 730.222192 97.030588 
L 730.328076 95.844706 
L 730.43396 97.030588 
L 730.645728 95.844706 
L 730.96338 95.844706 
L 731.4928 91.101176 
L 731.598684 91.101176 
L 731.916336 88.729412 
L 732.02222 88.729412 
L 732.233989 87.543529 
L 732.339873 87.543529 
L 732.551641 86.357647 
L 733.610481 86.357647 
L 733.928133 88.729412 
L 734.034017 88.729412 
L 734.245785 89.915294 
L 734.351669 89.915294 
L 734.563437 91.101176 
L 734.881089 91.101176 
L 735.092857 92.287059 
L 741.234131 92.287059 
L 741.551783 89.915294 
L 741.657667 89.915294 
L 741.869435 88.729412 
L 741.975319 88.729412 
L 742.187087 87.543529 
L 743.563579 87.543529 
L 743.881232 89.915294 
L 743.987116 89.915294 
L 744.198884 91.101176 
L 744.304768 91.101176 
L 744.516536 92.287059 
L 744.62242 92.287059 
L 745.15184 97.030588 
L 745.257724 97.030588 
L 745.575376 99.402353 
L 745.787144 99.402353 
L 745.998912 100.588235 
L 747.163636 100.588235 
L 747.163636 100.588235 
" style="fill:none;stroke:#1f77b4;stroke-linecap:square;stroke-width:1.5;"/>
   </g>
   <g id="patch_3">
    <path d="M 108 128.16 
L 108 17.28 
" style="fill:none;stroke:#000000;stroke-linecap:square;stroke-linejoin:miter;stroke-width:0.8;"/>
   </g>
   <g id="patch_4">
    <path d="M 777.6 128.16 
L 777.6 17.28 
" style="fill:none;stroke:#000000;stroke-linecap:square;stroke-linejoin:miter;stroke-width:0.8;"/>
   </g>
   <g id="patch_5">
    <path d="M 108 128.16 
L 777.6 128.16 
" style="fill:none;stroke:#000000;stroke-linecap:square;stroke-linejoin:miter;stroke-width:0.8;"/>
   </g>
   <g id="patch_6">
    <path d="M 108 17.28 
L 777.6 17.28 
" style="fill:none;stroke:#000000;stroke-linecap:square;stroke-linejoin:miter;stroke-width:0.8;"/>
   </g>
   <g id="text_14">
    <!-- Example 1: Post-Synaptic Neuron Firing Rate -->
    <defs>
     <path d="M 9.8125 72.90625 
L 55.90625 72.90625 
L 55.90625 64.59375 
L 19.671875 64.59375 
L 19.671875 43.015625 
L 54.390625 43.015625 
L 54.390625 34.71875 
L 19.671875 34.71875 
L 19.671875 8.296875 
L 56.78125 8.296875 
L 56.78125 0 
L 9.8125 0 
z
" id="DejaVuSans-45"/>
     <path d="M 54.890625 54.6875 
L 35.109375 28.078125 
L 55.90625 0 
L 45.3125 0 
L 29.390625 21.484375 
L 13.484375 0 
L 2.875 0 
L 24.125 28.609375 
L 4.6875 54.6875 
L 15.28125 54.6875 
L 29.78125 35.203125 
L 44.28125 54.6875 
z
" id="DejaVuSans-78"/>
     <path d="M 18.109375 8.203125 
L 18.109375 -20.796875 
L 9.078125 -20.796875 
L 9.078125 54.6875 
L 18.109375 54.6875 
L 18.109375 46.390625 
Q 20.953125 51.265625 25.265625 53.625 
Q 29.59375 56 35.59375 56 
Q 45.5625 56 51.78125 48.09375 
Q 58.015625 40.1875 58.015625 27.296875 
Q 58.015625 14.40625 51.78125 6.484375 
Q 45.5625 -1.421875 35.59375 -1.421875 
Q 29.59375 -1.421875 25.265625 0.953125 
Q 20.953125 3.328125 18.109375 8.203125 
z
M 48.6875 27.296875 
Q 48.6875 37.203125 44.609375 42.84375 
Q 40.53125 48.484375 33.40625 48.484375 
Q 26.265625 48.484375 22.1875 42.84375 
Q 18.109375 37.203125 18.109375 27.296875 
Q 18.109375 17.390625 22.1875 11.75 
Q 26.265625 6.109375 33.40625 6.109375 
Q 40.53125 6.109375 44.609375 11.75 
Q 48.6875 17.390625 48.6875 27.296875 
z
" id="DejaVuSans-70"/>
     <path d="M 11.71875 12.40625 
L 22.015625 12.40625 
L 22.015625 0 
L 11.71875 0 
z
M 11.71875 51.703125 
L 22.015625 51.703125 
L 22.015625 39.3125 
L 11.71875 39.3125 
z
" id="DejaVuSans-3a"/>
     <path d="M 19.671875 64.796875 
L 19.671875 37.40625 
L 32.078125 37.40625 
Q 38.96875 37.40625 42.71875 40.96875 
Q 46.484375 44.53125 46.484375 51.125 
Q 46.484375 57.671875 42.71875 61.234375 
Q 38.96875 64.796875 32.078125 64.796875 
z
M 9.8125 72.90625 
L 32.078125 72.90625 
Q 44.34375 72.90625 50.609375 67.359375 
Q 56.890625 61.8125 56.890625 51.125 
Q 56.890625 40.328125 50.609375 34.8125 
Q 44.34375 29.296875 32.078125 29.296875 
L 19.671875 29.296875 
L 19.671875 0 
L 9.8125 0 
z
" id="DejaVuSans-50"/>
     <path d="M 4.890625 31.390625 
L 31.203125 31.390625 
L 31.203125 23.390625 
L 4.890625 23.390625 
z
" id="DejaVuSans-2d"/>
     <path d="M 32.171875 -5.078125 
Q 28.375 -14.84375 24.75 -17.8125 
Q 21.140625 -20.796875 15.09375 -20.796875 
L 7.90625 -20.796875 
L 7.90625 -13.28125 
L 13.1875 -13.28125 
Q 16.890625 -13.28125 18.9375 -11.515625 
Q 21 -9.765625 23.484375 -3.21875 
L 25.09375 0.875 
L 2.984375 54.6875 
L 12.5 54.6875 
L 29.59375 11.921875 
L 46.6875 54.6875 
L 56.203125 54.6875 
z
" id="DejaVuSans-79"/>
     <path d="M 48.78125 52.59375 
L 48.78125 44.1875 
Q 44.96875 46.296875 41.140625 47.34375 
Q 37.3125 48.390625 33.40625 48.390625 
Q 24.65625 48.390625 19.8125 42.84375 
Q 14.984375 37.3125 14.984375 27.296875 
Q 14.984375 17.28125 19.8125 11.734375 
Q 24.65625 6.203125 33.40625 6.203125 
Q 37.3125 6.203125 41.140625 7.25 
Q 44.96875 8.296875 48.78125 10.40625 
L 48.78125 2.09375 
Q 45.015625 0.34375 40.984375 -0.53125 
Q 36.96875 -1.421875 32.421875 -1.421875 
Q 20.0625 -1.421875 12.78125 6.34375 
Q 5.515625 14.109375 5.515625 27.296875 
Q 5.515625 40.671875 12.859375 48.328125 
Q 20.21875 56 33.015625 56 
Q 37.15625 56 41.109375 55.140625 
Q 45.0625 54.296875 48.78125 52.59375 
z
" id="DejaVuSans-63"/>
     <path d="M 9.8125 72.90625 
L 23.09375 72.90625 
L 55.421875 11.921875 
L 55.421875 72.90625 
L 64.984375 72.90625 
L 64.984375 0 
L 51.703125 0 
L 19.390625 60.984375 
L 19.390625 0 
L 9.8125 0 
z
" id="DejaVuSans-4e"/>
     <path d="M 41.109375 46.296875 
Q 39.59375 47.171875 37.8125 47.578125 
Q 36.03125 48 33.890625 48 
Q 26.265625 48 22.1875 43.046875 
Q 18.109375 38.09375 18.109375 28.8125 
L 18.109375 0 
L 9.078125 0 
L 9.078125 54.6875 
L 18.109375 54.6875 
L 18.109375 46.1875 
Q 20.953125 51.171875 25.484375 53.578125 
Q 30.03125 56 36.53125 56 
Q 37.453125 56 38.578125 55.875 
Q 39.703125 55.765625 41.0625 55.515625 
z
" id="DejaVuSans-72"/>
     <path d="M 9.8125 72.90625 
L 51.703125 72.90625 
L 51.703125 64.59375 
L 19.671875 64.59375 
L 19.671875 43.109375 
L 48.578125 43.109375 
L 48.578125 34.8125 
L 19.671875 34.8125 
L 19.671875 0 
L 9.8125 0 
z
" id="DejaVuSans-46"/>
     <path d="M 45.40625 27.984375 
Q 45.40625 37.75 41.375 43.109375 
Q 37.359375 48.484375 30.078125 48.484375 
Q 22.859375 48.484375 18.828125 43.109375 
Q 14.796875 37.75 14.796875 27.984375 
Q 14.796875 18.265625 18.828125 12.890625 
Q 22.859375 7.515625 30.078125 7.515625 
Q 37.359375 7.515625 41.375 12.890625 
Q 45.40625 18.265625 45.40625 27.984375 
z
M 54.390625 6.78125 
Q 54.390625 -7.171875 48.1875 -13.984375 
Q 42 -20.796875 29.203125 -20.796875 
Q 24.46875 -20.796875 20.265625 -20.09375 
Q 16.0625 -19.390625 12.109375 -17.921875 
L 12.109375 -9.1875 
Q 16.0625 -11.328125 19.921875 -12.34375 
Q 23.78125 -13.375 27.78125 -13.375 
Q 36.625 -13.375 41.015625 -8.765625 
Q 45.40625 -4.15625 45.40625 5.171875 
L 45.40625 9.625 
Q 42.625 4.78125 38.28125 2.390625 
Q 33.9375 0 27.875 0 
Q 17.828125 0 11.671875 7.65625 
Q 5.515625 15.328125 5.515625 27.984375 
Q 5.515625 40.671875 11.671875 48.328125 
Q 17.828125 56 27.875 56 
Q 33.9375 56 38.28125 53.609375 
Q 42.625 51.21875 45.40625 46.390625 
L 45.40625 54.6875 
L 54.390625 54.6875 
z
" id="DejaVuSans-67"/>
     <path d="M 44.390625 34.1875 
Q 47.5625 33.109375 50.5625 29.59375 
Q 53.5625 26.078125 56.59375 19.921875 
L 66.609375 0 
L 56 0 
L 46.6875 18.703125 
Q 43.0625 26.03125 39.671875 28.421875 
Q 36.28125 30.8125 30.421875 30.8125 
L 19.671875 30.8125 
L 19.671875 0 
L 9.8125 0 
L 9.8125 72.90625 
L 32.078125 72.90625 
Q 44.578125 72.90625 50.734375 67.671875 
Q 56.890625 62.453125 56.890625 51.90625 
Q 56.890625 45.015625 53.6875 40.46875 
Q 50.484375 35.9375 44.390625 34.1875 
z
M 19.671875 64.796875 
L 19.671875 38.921875 
L 32.078125 38.921875 
Q 39.203125 38.921875 42.84375 42.21875 
Q 46.484375 45.515625 46.484375 51.90625 
Q 46.484375 58.296875 42.84375 61.546875 
Q 39.203125 64.796875 32.078125 64.796875 
z
" id="DejaVuSans-52"/>
    </defs>
    <g transform="translate(307.83375 11.28)scale(0.12 -0.12)">
     <use xlink:href="#DejaVuSans-45"/>
     <use x="63.183594" xlink:href="#DejaVuSans-78"/>
     <use x="122.363281" xlink:href="#DejaVuSans-61"/>
     <use x="183.642578" xlink:href="#DejaVuSans-6d"/>
     <use x="281.054688" xlink:href="#DejaVuSans-70"/>
     <use x="344.53125" xlink:href="#DejaVuSans-6c"/>
     <use x="372.314453" xlink:href="#DejaVuSans-65"/>
     <use x="433.837891" xlink:href="#DejaVuSans-20"/>
     <use x="465.625" xlink:href="#DejaVuSans-31"/>
     <use x="529.248047" xlink:href="#DejaVuSans-3a"/>
     <use x="562.939453" xlink:href="#DejaVuSans-20"/>
     <use x="594.726562" xlink:href="#DejaVuSans-50"/>
     <use x="654.982422" xlink:href="#DejaVuSans-6f"/>
     <use x="716.164062" xlink:href="#DejaVuSans-73"/>
     <use x="768.263672" xlink:href="#DejaVuSans-74"/>
     <use x="807.472656" xlink:href="#DejaVuSans-2d"/>
     <use x="843.556641" xlink:href="#DejaVuSans-53"/>
     <use x="907.033203" xlink:href="#DejaVuSans-79"/>
     <use x="966.212891" xlink:href="#DejaVuSans-6e"/>
     <use x="1029.591797" xlink:href="#DejaVuSans-61"/>
     <use x="1090.871094" xlink:href="#DejaVuSans-70"/>
     <use x="1154.347656" xlink:href="#DejaVuSans-74"/>
     <use x="1193.556641" xlink:href="#DejaVuSans-69"/>
     <use x="1221.339844" xlink:href="#DejaVuSans-63"/>
     <use x="1276.320312" xlink:href="#DejaVuSans-20"/>
     <use x="1308.107422" xlink:href="#DejaVuSans-4e"/>
     <use x="1382.912109" xlink:href="#DejaVuSans-65"/>
     <use x="1444.435547" xlink:href="#DejaVuSans-75"/>
     <use x="1507.814453" xlink:href="#DejaVuSans-72"/>
     <use x="1548.896484" xlink:href="#DejaVuSans-6f"/>
     <use x="1610.078125" xlink:href="#DejaVuSans-6e"/>
     <use x="1673.457031" xlink:href="#DejaVuSans-20"/>
     <use x="1705.244141" xlink:href="#DejaVuSans-46"/>
     <use x="1762.654297" xlink:href="#DejaVuSans-69"/>
     <use x="1790.4375" xlink:href="#DejaVuSans-72"/>
     <use x="1831.550781" xlink:href="#DejaVuSans-69"/>
     <use x="1859.333984" xlink:href="#DejaVuSans-6e"/>
     <use x="1922.712891" xlink:href="#DejaVuSans-67"/>
     <use x="1986.189453" xlink:href="#DejaVuSans-20"/>
     <use x="2017.976562" xlink:href="#DejaVuSans-52"/>
     <use x="2087.427734" xlink:href="#DejaVuSans-61"/>
     <use x="2148.707031" xlink:href="#DejaVuSans-74"/>
     <use x="2187.916016" xlink:href="#DejaVuSans-65"/>
    </g>
   </g>
  </g>
 </g>
 <defs>
  <clipPath id="pd38a489807">
   <rect height="110.88" width="669.6" x="108" y="17.28"/>
  </clipPath>
 </defs>
</svg>
